<svg height="512pt" viewBox="0 0 512 512" width="512pt" xmlns="http://www.w3.org/2000/svg" xmlns:xlink="http://www.w3.org/1999/xlink"><linearGradient id="a" gradientTransform="matrix(1 0 0 -1 0 -14446)" gradientUnits="userSpaceOnUse" x1="0" x2="512" y1="-14702" y2="-14702"><stop offset="0" stop-color="#00f38d"/><stop offset="1" stop-color="#009eff"/></linearGradient><path d="m512 256c0 141.386719-114.613281 256-256 256s-256-114.613281-256-256 114.613281-256 256-256 256 114.613281 256 256zm0 0" fill="url(#a)"/><g fill="#fff"><path d="m150.503906 315.023438h210.542969c25.34375 0 45.960937-20.617188 45.960937-45.960938v-123.847656c0-25.347656-20.617187-45.964844-45.960937-45.964844h-29.273437l-11.582032-24.09375c-4.71875-9.8125-14.804687-16.15625-25.695312-16.15625h-75.121094c-10.890625 0-20.976562 6.34375-25.695312 16.160156l-11.585938 24.089844h-31.589844c-25.347656 0-45.964844 20.621094-45.964844 45.964844v123.847656c0 25.34375 20.617188 45.960938 45.964844 45.960938zm-15.964844-169.808594c0-8.804688 7.160157-15.964844 15.964844-15.964844h32.527344c10.890625 0 20.976562-6.339844 25.695312-16.15625l11.585938-24.09375h73.246094l11.585937 24.09375c4.71875 9.8125 14.804688 16.15625 25.695313 16.15625h30.207031c8.800781 0 15.960937 7.160156 15.960937 15.964844v123.847656c0 8.800781-7.160156 15.960938-15.960937 15.960938h-210.542969c-8.804687 0-15.964844-7.160157-15.964844-15.960938zm0 0"/><path d="m255.773438 260.839844c33.878906 0 61.445312-27.5625 61.445312-61.441406 0-33.878907-27.5625-61.445313-61.445312-61.445313-33.878907 0-61.441407 27.566406-61.441407 61.445313 0 33.878906 27.5625 61.441406 61.441407 61.441406zm0-92.886719c17.339843 0 31.445312 14.105469 31.445312 31.445313 0 17.335937-14.105469 31.441406-31.445312 31.441406-17.335938 0-31.441407-14.105469-31.441407-31.441406 0-17.339844 14.105469-31.445313 31.441407-31.445313zm0 0"/><path d="m198.722656 348.5625 25.871094 25.871094c-36.726562-2.191406-70.328125-8.328125-96.425781-17.746094-28.929688-10.4375-41.878907-22.890625-41.878907-30.601562 0-3.046876 1.851563-6.492188 5.5-10.246094.171876-.171875.34375-.347656.519532-.519532l10.667968-10.542968-21.085937-21.339844-10.667969 10.542969c-.320312.316406-.632812.628906-.941406.945312-11.5625 11.890625-13.992188 23.507813-13.992188 31.160157 0 16.679687 10.707032 40.425781 61.699219 58.820312 29.828125 10.765625 68.117188 17.613281 109.5 19.726562l-28.761719 28.761719 21.210938 21.210938 63.628906-63.628907-63.628906-63.628906zm0 0"/><path d="m440.097656 295.320312-10.367187-10.839843-21.679688 20.738281 10.371094 10.839844c3.507813 3.667968 5.289063 7.042968 5.289063 10.027344 0 5.816406-7.519532 15.496093-28.617188 25.207031-22.1875 10.210937-54.0625 17.855469-89.757812 21.523437l-14.921876 1.53125 3.066407 29.84375 14.917969-1.535156c39.457031-4.050781 73.769531-12.390625 99.238281-24.109375 38.082031-17.527344 46.074219-38.203125 46.074219-52.460937 0-7.542969-2.363282-19.003907-13.613282-30.765626zm0 0"/></g></svg>